<?xml version="1.0" encoding="utf-8"?>
<svg version="1.1" baseProfile="full" width="800" height="600" xmlns="http://www.w3.org/2000/svg">
<clipPath>
<rect x="0" y="0" width="800" height="600" fill="rgb(0,0,0)" />
</clipPath>
<text x="274" y="34" fill="rgb(0,0,0)">
bst.contains() Versus std::find() on array</text>
<line x1="158.858" y1="50" x2="158.858" y2="550" stroke="rgb(200,200,200)" />
<line x1="222.835" y1="50" x2="222.835" y2="550" stroke="rgb(200,200,200)" />
<line x1="286.811" y1="50" x2="286.811" y2="550" stroke="rgb(200,200,200)" />
<line x1="350.787" y1="50" x2="350.787" y2="550" stroke="rgb(200,200,200)" />
<line x1="414.764" y1="50" x2="414.764" y2="550" stroke="rgb(200,200,200)" />
<line x1="478.74" y1="50" x2="478.74" y2="550" stroke="rgb(200,200,200)" />
<line x1="542.717" y1="50" x2="542.717" y2="550" stroke="rgb(200,200,200)" />
<line x1="606.693" y1="50" x2="606.693" y2="550" stroke="rgb(200,200,200)" />
<line x1="670.669" y1="50" x2="670.669" y2="550" stroke="rgb(200,200,200)" />
<line x1="734.646" y1="50" x2="734.646" y2="550" stroke="rgb(200,200,200)" />
<line x1="100" y1="550" x2="750" y2="550" stroke="rgb(200,200,200)" />
<line x1="100" y1="518.843" x2="750" y2="518.843" stroke="rgb(200,200,200)" />
<line x1="100" y1="487.687" x2="750" y2="487.687" stroke="rgb(200,200,200)" />
<line x1="100" y1="456.53" x2="750" y2="456.53" stroke="rgb(200,200,200)" />
<line x1="100" y1="425.374" x2="750" y2="425.374" stroke="rgb(200,200,200)" />
<line x1="100" y1="394.217" x2="750" y2="394.217" stroke="rgb(200,200,200)" />
<line x1="100" y1="363.061" x2="750" y2="363.061" stroke="rgb(200,200,200)" />
<line x1="100" y1="331.904" x2="750" y2="331.904" stroke="rgb(200,200,200)" />
<line x1="100" y1="300.748" x2="750" y2="300.748" stroke="rgb(200,200,200)" />
<line x1="100" y1="269.591" x2="750" y2="269.591" stroke="rgb(200,200,200)" />
<line x1="100" y1="238.435" x2="750" y2="238.435" stroke="rgb(200,200,200)" />
<line x1="100" y1="207.278" x2="750" y2="207.278" stroke="rgb(200,200,200)" />
<line x1="100" y1="176.122" x2="750" y2="176.122" stroke="rgb(200,200,200)" />
<line x1="100" y1="144.965" x2="750" y2="144.965" stroke="rgb(200,200,200)" />
<line x1="100" y1="113.809" x2="750" y2="113.809" stroke="rgb(200,200,200)" />
<line x1="100" y1="82.652" x2="750" y2="82.652" stroke="rgb(200,200,200)" />
<line x1="100" y1="51.4955" x2="750" y2="51.4955" stroke="rgb(200,200,200)" />
<line x1="100" y1="550" x2="750" y2="550" stroke="rgb(0,0,0)" />
<line x1="107.677" y1="550" x2="107.677" y2="554" stroke="rgb(0,0,0)" />
<line x1="120.472" y1="550" x2="120.472" y2="554" stroke="rgb(0,0,0)" />
<line x1="133.268" y1="550" x2="133.268" y2="554" stroke="rgb(0,0,0)" />
<line x1="146.063" y1="550" x2="146.063" y2="554" stroke="rgb(0,0,0)" />
<text x="158" y="578" fill="rgb(0,0,0)">
200</text>
<line x1="158.858" y1="550" x2="158.858" y2="558" stroke="rgb(0,0,0)" />
<line x1="171.654" y1="550" x2="171.654" y2="554" stroke="rgb(0,0,0)" />
<line x1="184.449" y1="550" x2="184.449" y2="554" stroke="rgb(0,0,0)" />
<line x1="197.244" y1="550" x2="197.244" y2="554" stroke="rgb(0,0,0)" />
<line x1="210.039" y1="550" x2="210.039" y2="554" stroke="rgb(0,0,0)" />
<text x="222" y="578" fill="rgb(0,0,0)">
400</text>
<line x1="222.835" y1="550" x2="222.835" y2="558" stroke="rgb(0,0,0)" />
<line x1="235.63" y1="550" x2="235.63" y2="554" stroke="rgb(0,0,0)" />
<line x1="248.425" y1="550" x2="248.425" y2="554" stroke="rgb(0,0,0)" />
<line x1="261.22" y1="550" x2="261.22" y2="554" stroke="rgb(0,0,0)" />
<line x1="274.016" y1="550" x2="274.016" y2="554" stroke="rgb(0,0,0)" />
<text x="286" y="578" fill="rgb(0,0,0)">
600</text>
<line x1="286.811" y1="550" x2="286.811" y2="558" stroke="rgb(0,0,0)" />
<line x1="299.606" y1="550" x2="299.606" y2="554" stroke="rgb(0,0,0)" />
<line x1="312.402" y1="550" x2="312.402" y2="554" stroke="rgb(0,0,0)" />
<line x1="325.197" y1="550" x2="325.197" y2="554" stroke="rgb(0,0,0)" />
<line x1="337.992" y1="550" x2="337.992" y2="554" stroke="rgb(0,0,0)" />
<text x="350" y="578" fill="rgb(0,0,0)">
800</text>
<line x1="350.787" y1="550" x2="350.787" y2="558" stroke="rgb(0,0,0)" />
<line x1="363.583" y1="550" x2="363.583" y2="554" stroke="rgb(0,0,0)" />
<line x1="376.378" y1="550" x2="376.378" y2="554" stroke="rgb(0,0,0)" />
<line x1="389.173" y1="550" x2="389.173" y2="554" stroke="rgb(0,0,0)" />
<line x1="401.969" y1="550" x2="401.969" y2="554" stroke="rgb(0,0,0)" />
<text x="414" y="578" fill="rgb(0,0,0)">
1000</text>
<line x1="414.764" y1="550" x2="414.764" y2="558" stroke="rgb(0,0,0)" />
<line x1="427.559" y1="550" x2="427.559" y2="554" stroke="rgb(0,0,0)" />
<line x1="440.354" y1="550" x2="440.354" y2="554" stroke="rgb(0,0,0)" />
<line x1="453.15" y1="550" x2="453.15" y2="554" stroke="rgb(0,0,0)" />
<line x1="465.945" y1="550" x2="465.945" y2="554" stroke="rgb(0,0,0)" />
<text x="478" y="578" fill="rgb(0,0,0)">
1200</text>
<line x1="478.74" y1="550" x2="478.74" y2="558" stroke="rgb(0,0,0)" />
<line x1="491.535" y1="550" x2="491.535" y2="554" stroke="rgb(0,0,0)" />
<line x1="504.331" y1="550" x2="504.331" y2="554" stroke="rgb(0,0,0)" />
<line x1="517.126" y1="550" x2="517.126" y2="554" stroke="rgb(0,0,0)" />
<line x1="529.921" y1="550" x2="529.921" y2="554" stroke="rgb(0,0,0)" />
<text x="542" y="578" fill="rgb(0,0,0)">
1400</text>
<line x1="542.717" y1="550" x2="542.717" y2="558" stroke="rgb(0,0,0)" />
<line x1="555.512" y1="550" x2="555.512" y2="554" stroke="rgb(0,0,0)" />
<line x1="568.307" y1="550" x2="568.307" y2="554" stroke="rgb(0,0,0)" />
<line x1="581.102" y1="550" x2="581.102" y2="554" stroke="rgb(0,0,0)" />
<line x1="593.898" y1="550" x2="593.898" y2="554" stroke="rgb(0,0,0)" />
<text x="606" y="578" fill="rgb(0,0,0)">
1600</text>
<line x1="606.693" y1="550" x2="606.693" y2="558" stroke="rgb(0,0,0)" />
<line x1="619.488" y1="550" x2="619.488" y2="554" stroke="rgb(0,0,0)" />
<line x1="632.283" y1="550" x2="632.283" y2="554" stroke="rgb(0,0,0)" />
<line x1="645.079" y1="550" x2="645.079" y2="554" stroke="rgb(0,0,0)" />
<line x1="657.874" y1="550" x2="657.874" y2="554" stroke="rgb(0,0,0)" />
<text x="670" y="578" fill="rgb(0,0,0)">
1800</text>
<line x1="670.669" y1="550" x2="670.669" y2="558" stroke="rgb(0,0,0)" />
<line x1="683.465" y1="550" x2="683.465" y2="554" stroke="rgb(0,0,0)" />
<line x1="696.26" y1="550" x2="696.26" y2="554" stroke="rgb(0,0,0)" />
<line x1="709.055" y1="550" x2="709.055" y2="554" stroke="rgb(0,0,0)" />
<line x1="721.85" y1="550" x2="721.85" y2="554" stroke="rgb(0,0,0)" />
<text x="734" y="578" fill="rgb(0,0,0)">
2000</text>
<line x1="734.646" y1="550" x2="734.646" y2="558" stroke="rgb(0,0,0)" />
<line x1="747.441" y1="550" x2="747.441" y2="554" stroke="rgb(0,0,0)" />
<text x="409" y="594" fill="rgb(0,0,0)">
N</text>
<line x1="100" y1="50" x2="100" y2="550" stroke="rgb(0,0,0)" />
<text x="58" y="558" fill="rgb(0,0,0)">
0</text>
<line x1="100" y1="550" x2="92" y2="550" stroke="rgb(0,0,0)" />
<line x1="100" y1="543.769" x2="96" y2="543.769" stroke="rgb(0,0,0)" />
<line x1="100" y1="537.537" x2="96" y2="537.537" stroke="rgb(0,0,0)" />
<line x1="100" y1="531.306" x2="96" y2="531.306" stroke="rgb(0,0,0)" />
<line x1="100" y1="525.075" x2="96" y2="525.075" stroke="rgb(0,0,0)" />
<text x="46" y="526" fill="rgb(0,0,0)">
500</text>
<line x1="100" y1="518.843" x2="92" y2="518.843" stroke="rgb(0,0,0)" />
<line x1="100" y1="512.612" x2="96" y2="512.612" stroke="rgb(0,0,0)" />
<line x1="100" y1="506.381" x2="96" y2="506.381" stroke="rgb(0,0,0)" />
<line x1="100" y1="500.15" x2="96" y2="500.15" stroke="rgb(0,0,0)" />
<line x1="100" y1="493.918" x2="96" y2="493.918" stroke="rgb(0,0,0)" />
<text x="42" y="495" fill="rgb(0,0,0)">
1000</text>
<line x1="100" y1="487.687" x2="92" y2="487.687" stroke="rgb(0,0,0)" />
<line x1="100" y1="481.456" x2="96" y2="481.456" stroke="rgb(0,0,0)" />
<line x1="100" y1="475.224" x2="96" y2="475.224" stroke="rgb(0,0,0)" />
<line x1="100" y1="468.993" x2="96" y2="468.993" stroke="rgb(0,0,0)" />
<line x1="100" y1="462.762" x2="96" y2="462.762" stroke="rgb(0,0,0)" />
<text x="42" y="464" fill="rgb(0,0,0)">
1500</text>
<line x1="100" y1="456.53" x2="92" y2="456.53" stroke="rgb(0,0,0)" />
<line x1="100" y1="450.299" x2="96" y2="450.299" stroke="rgb(0,0,0)" />
<line x1="100" y1="444.068" x2="96" y2="444.068" stroke="rgb(0,0,0)" />
<line x1="100" y1="437.836" x2="96" y2="437.836" stroke="rgb(0,0,0)" />
<line x1="100" y1="431.605" x2="96" y2="431.605" stroke="rgb(0,0,0)" />
<text x="40" y="433" fill="rgb(0,0,0)">
2000</text>
<line x1="100" y1="425.374" x2="92" y2="425.374" stroke="rgb(0,0,0)" />
<line x1="100" y1="419.143" x2="96" y2="419.143" stroke="rgb(0,0,0)" />
<line x1="100" y1="412.911" x2="96" y2="412.911" stroke="rgb(0,0,0)" />
<line x1="100" y1="406.68" x2="96" y2="406.68" stroke="rgb(0,0,0)" />
<line x1="100" y1="400.449" x2="96" y2="400.449" stroke="rgb(0,0,0)" />
<text x="40" y="402" fill="rgb(0,0,0)">
2500</text>
<line x1="100" y1="394.217" x2="92" y2="394.217" stroke="rgb(0,0,0)" />
<line x1="100" y1="387.986" x2="96" y2="387.986" stroke="rgb(0,0,0)" />
<line x1="100" y1="381.755" x2="96" y2="381.755" stroke="rgb(0,0,0)" />
<line x1="100" y1="375.523" x2="96" y2="375.523" stroke="rgb(0,0,0)" />
<line x1="100" y1="369.292" x2="96" y2="369.292" stroke="rgb(0,0,0)" />
<text x="40" y="371" fill="rgb(0,0,0)">
3000</text>
<line x1="100" y1="363.061" x2="92" y2="363.061" stroke="rgb(0,0,0)" />
<line x1="100" y1="356.83" x2="96" y2="356.83" stroke="rgb(0,0,0)" />
<line x1="100" y1="350.598" x2="96" y2="350.598" stroke="rgb(0,0,0)" />
<line x1="100" y1="344.367" x2="96" y2="344.367" stroke="rgb(0,0,0)" />
<line x1="100" y1="338.136" x2="96" y2="338.136" stroke="rgb(0,0,0)" />
<text x="40" y="339" fill="rgb(0,0,0)">
3500</text>
<line x1="100" y1="331.904" x2="92" y2="331.904" stroke="rgb(0,0,0)" />
<line x1="100" y1="325.673" x2="96" y2="325.673" stroke="rgb(0,0,0)" />
<line x1="100" y1="319.442" x2="96" y2="319.442" stroke="rgb(0,0,0)" />
<line x1="100" y1="313.21" x2="96" y2="313.21" stroke="rgb(0,0,0)" />
<line x1="100" y1="306.979" x2="96" y2="306.979" stroke="rgb(0,0,0)" />
<text x="40" y="308" fill="rgb(0,0,0)">
4000</text>
<line x1="100" y1="300.748" x2="92" y2="300.748" stroke="rgb(0,0,0)" />
<line x1="100" y1="294.516" x2="96" y2="294.516" stroke="rgb(0,0,0)" />
<line x1="100" y1="288.285" x2="96" y2="288.285" stroke="rgb(0,0,0)" />
<line x1="100" y1="282.054" x2="96" y2="282.054" stroke="rgb(0,0,0)" />
<line x1="100" y1="275.823" x2="96" y2="275.823" stroke="rgb(0,0,0)" />
<text x="40" y="277" fill="rgb(0,0,0)">
4500</text>
<line x1="100" y1="269.591" x2="92" y2="269.591" stroke="rgb(0,0,0)" />
<line x1="100" y1="263.36" x2="96" y2="263.36" stroke="rgb(0,0,0)" />
<line x1="100" y1="257.129" x2="96" y2="257.129" stroke="rgb(0,0,0)" />
<line x1="100" y1="250.897" x2="96" y2="250.897" stroke="rgb(0,0,0)" />
<line x1="100" y1="244.666" x2="96" y2="244.666" stroke="rgb(0,0,0)" />
<text x="40" y="246" fill="rgb(0,0,0)">
5000</text>
<line x1="100" y1="238.435" x2="92" y2="238.435" stroke="rgb(0,0,0)" />
<line x1="100" y1="232.203" x2="96" y2="232.203" stroke="rgb(0,0,0)" />
<line x1="100" y1="225.972" x2="96" y2="225.972" stroke="rgb(0,0,0)" />
<line x1="100" y1="219.741" x2="96" y2="219.741" stroke="rgb(0,0,0)" />
<line x1="100" y1="213.509" x2="96" y2="213.509" stroke="rgb(0,0,0)" />
<text x="40" y="215" fill="rgb(0,0,0)">
5500</text>
<line x1="100" y1="207.278" x2="92" y2="207.278" stroke="rgb(0,0,0)" />
<line x1="100" y1="201.047" x2="96" y2="201.047" stroke="rgb(0,0,0)" />
<line x1="100" y1="194.816" x2="96" y2="194.816" stroke="rgb(0,0,0)" />
<line x1="100" y1="188.584" x2="96" y2="188.584" stroke="rgb(0,0,0)" />
<line x1="100" y1="182.353" x2="96" y2="182.353" stroke="rgb(0,0,0)" />
<text x="40" y="184" fill="rgb(0,0,0)">
6000</text>
<line x1="100" y1="176.122" x2="92" y2="176.122" stroke="rgb(0,0,0)" />
<line x1="100" y1="169.89" x2="96" y2="169.89" stroke="rgb(0,0,0)" />
<line x1="100" y1="163.659" x2="96" y2="163.659" stroke="rgb(0,0,0)" />
<line x1="100" y1="157.428" x2="96" y2="157.428" stroke="rgb(0,0,0)" />
<line x1="100" y1="151.196" x2="96" y2="151.196" stroke="rgb(0,0,0)" />
<text x="40" y="152" fill="rgb(0,0,0)">
6500</text>
<line x1="100" y1="144.965" x2="92" y2="144.965" stroke="rgb(0,0,0)" />
<line x1="100" y1="138.734" x2="96" y2="138.734" stroke="rgb(0,0,0)" />
<line x1="100" y1="132.503" x2="96" y2="132.503" stroke="rgb(0,0,0)" />
<line x1="100" y1="126.271" x2="96" y2="126.271" stroke="rgb(0,0,0)" />
<line x1="100" y1="120.04" x2="96" y2="120.04" stroke="rgb(0,0,0)" />
<text x="40" y="121" fill="rgb(0,0,0)">
7000</text>
<line x1="100" y1="113.809" x2="92" y2="113.809" stroke="rgb(0,0,0)" />
<line x1="100" y1="107.577" x2="96" y2="107.577" stroke="rgb(0,0,0)" />
<line x1="100" y1="101.346" x2="96" y2="101.346" stroke="rgb(0,0,0)" />
<line x1="100" y1="95.1147" x2="96" y2="95.1147" stroke="rgb(0,0,0)" />
<line x1="100" y1="88.8834" x2="96" y2="88.8834" stroke="rgb(0,0,0)" />
<text x="40" y="90" fill="rgb(0,0,0)">
7500</text>
<line x1="100" y1="82.652" x2="92" y2="82.652" stroke="rgb(0,0,0)" />
<line x1="100" y1="76.4207" x2="96" y2="76.4207" stroke="rgb(0,0,0)" />
<line x1="100" y1="70.1894" x2="96" y2="70.1894" stroke="rgb(0,0,0)" />
<line x1="100" y1="63.9581" x2="96" y2="63.9581" stroke="rgb(0,0,0)" />
<line x1="100" y1="57.7268" x2="96" y2="57.7268" stroke="rgb(0,0,0)" />
<text x="40" y="59" fill="rgb(0,0,0)">
8000</text>
<line x1="100" y1="51.4955" x2="92" y2="51.4955" stroke="rgb(0,0,0)" />
<text x="40" y="370" transform="rotate(-90,40,370)">Time (microseconds)</text>
<text x="120" y="66" fill="rgb(200,0,100)">
bst.contains()</text>
<text x="120" y="98" fill="rgb(100,20,220)">
std::find()</text>
<clipPath>
<rect x="100" y="50" width="650" height="500" fill="rgb(0,0,0)" />
</clipPath>
<line x1="100" y1="549.875" x2="105.118" y2="549.813" stroke="rgb(200,0,100)" />
<line x1="105.118" y1="549.813" x2="115.354" y2="549.626" stroke="rgb(200,0,100)" />
<line x1="115.354" y1="549.626" x2="135.827" y2="549.065" stroke="rgb(200,0,100)" />
<line x1="135.827" y1="549.065" x2="176.772" y2="547.445" stroke="rgb(200,0,100)" />
<line x1="176.772" y1="547.445" x2="258.661" y2="545.14" stroke="rgb(200,0,100)" />
<line x1="258.661" y1="545.14" x2="422.441" y2="538.597" stroke="rgb(200,0,100)" />
<line x1="422.441" y1="538.597" x2="750" y2="525.636" stroke="rgb(200,0,100)" />
<line x1="100" y1="549.875" x2="105.118" y2="549.688" stroke="rgb(100,20,220)" />
<line x1="105.118" y1="549.688" x2="115.354" y2="549.377" stroke="rgb(100,20,220)" />
<line x1="115.354" y1="549.377" x2="135.827" y2="547.694" stroke="rgb(100,20,220)" />
<line x1="135.827" y1="547.694" x2="176.772" y2="541.276" stroke="rgb(100,20,220)" />
<line x1="176.772" y1="541.276" x2="258.661" y2="517.535" stroke="rgb(100,20,220)" />
<line x1="258.661" y1="517.535" x2="422.441" y2="426.932" stroke="rgb(100,20,220)" />
<line x1="422.441" y1="426.932" x2="750" y2="50" stroke="rgb(100,20,220)" />
</svg>

